# xmcd
#
# Track frame offsets:
#	150
#	13418
#	31759
#	49320
#	64926
#	80857
#	96893
#	111931
#	125729
#	140046
#	158370
#
# Disc length: 2373 seconds
#
# Revision: 1
# Processed by: cddbd v1.5.1PL2 Copyright (c) Steve Scherf et al.
# Submitted via: audiograbber 1.83.01
#
DISCID=9c09430b
DTITLE=Brushwood - Closing Time In Cheatingville
DYEAR=2006
DGENRE=Country
TTITLE0=Fallen
TTITLE1=Days Have Gone
TTITLE2=Moments
TTITLE3=Could You
TTITLE4=Spend The Night
TTITLE5=Lost
TTITLE6=Acacia Avenue
TTITLE7=Nobody
TTITLE8=Not Missing You
TTITLE9=All I Want (Remix) Outsiders
TTITLE10=Moments (Reprise)
EXTD=
EXTT0=
EXTT1=
EXTT2=
EXTT3=
EXTT4=
EXTT5=
EXTT6=
EXTT7=
EXTT8=
EXTT9=
EXTT10=
PLAYORDER=
